<svg xmlns="http://www.w3.org/2000/svg" width="30" height="27.183" viewBox="0 0 30 27.183">
  <path id="Path_8521" data-name="Path 8521" d="M0,23.136V22.2a11.018,11.018,0,0,1,.663-1.825Q5.845,11.329,11.079,2.314A4.348,4.348,0,0,1,13.446.281,4.412,4.412,0,0,1,18.9,2.306q5.237,9.03,10.438,18.082a4.288,4.288,0,0,1-.129,4.757A4.381,4.381,0,0,1,25.3,27.183q-10.319-.006-20.637,0c-.176,0-.352,0-.526-.017A4.28,4.28,0,0,1,.518,24.736,10.52,10.52,0,0,1,0,23.136M16.642,10.17c0-.151.017-.405,0-.656A1.645,1.645,0,0,0,15.213,8a1.674,1.674,0,0,0-1.753.993,2.7,2.7,0,0,0-.154,1.349q.145,2.352.287,4.7c.052.847.087,1.7.169,2.54A1.172,1.172,0,0,0,14.99,18.64a1.216,1.216,0,0,0,1.233-1.064c.037-.289.027-.584.044-.876.122-2.143.246-4.286.375-6.53m-.015,11.353A1.658,1.658,0,0,0,15.006,19.8a1.669,1.669,0,0,0-.031,3.337,1.641,1.641,0,0,0,1.653-1.619" transform="translate(0 0)" fill="#ff4040"/>
</svg>
