<svg xmlns="http://www.w3.org/2000/svg" width="18.527" height="14" viewBox="0 0 18.527 14">
  <g id="Group_4834" data-name="Group 4834" transform="translate(-3488.719 -959)">
    <path id="Path_3762" data-name="Path 3762" d="M293.516,244a2.4,2.4,0,1,1-2.4-2.4,2.4,2.4,0,0,1,2.4,2.4" transform="translate(3206.864 722.893)" fill="#fff"/>
    <path id="Path_3763" data-name="Path 3763" d="M113.25,104.914v8.337A1.859,1.859,0,0,0,115.1,115.1h14.821a1.859,1.859,0,0,0,1.854-1.852v-8.337a1.859,1.859,0,0,0-1.854-1.852H127.7a.825.825,0,0,1-.732-.527l-.575-.9a.822.822,0,0,0-.731-.527h-6.3a.824.824,0,0,0-.731.527l-.576.9a.822.822,0,0,1-.731.527H115.1A1.859,1.859,0,0,0,113.25,104.914Zm4.895,4.115a4.369,4.369,0,1,1,4.369,4.369A4.369,4.369,0,0,1,118.145,109.029Z" transform="translate(3375.469 857.896)" fill="#fff"/>
  </g>
</svg>
