<svg xmlns="http://www.w3.org/2000/svg" width="18.527" height="14.618" viewBox="0 0 18.527 14.618">
  <g id="Group_4837" data-name="Group 4837" transform="translate(-3372.078 -949)">
    <path id="Path_3760" data-name="Path 3760" d="M127.529,90.719H110.514a.765.765,0,0,0-.756.756v13.107a.765.765,0,0,0,.756.756h17.015a.765.765,0,0,0,.756-.756V91.475A.738.738,0,0,0,127.529,90.719Zm-.756,9.047L123.685,97.3a.779.779,0,0,0-.972.022l-3.476,3.023-4.6-5.182a.856.856,0,0,0-.583-.259.783.783,0,0,0-.561.238l-2.224,2.418V92.23h15.5Z" transform="translate(3262.32 858.281)" fill="#fff"/>
    <path id="Path_3761" data-name="Path 3761" d="M288.085,146.65a2.483,2.483,0,1,0-2.483-2.483A2.483,2.483,0,0,0,288.085,146.65Z" transform="translate(3093.416 809.204)" fill="#fff"/>
  </g>
</svg>
