<svg xmlns="http://www.w3.org/2000/svg" width="36" height="34.548" viewBox="0 0 36 34.548">
  <path id="Union_28" data-name="Union 28" d="M24.061.011A15.4,15.4,0,0,0,21.9.228a39.666,39.666,0,0,0-6.389,1.74,26.915,26.915,0,0,1-3.173.869C11.3,3.036,10.8,3.5,10.8,4.567q0,6.959,0,13.917c0,.094,0,.187.006.281a1.524,1.524,0,0,0,1.185,1.391,2.766,2.766,0,0,1,.959.464,7.178,7.178,0,0,1,1.052,1.03q2.292,2.708,4.554,5.442a4.041,4.041,0,0,1,.372.551,9.068,9.068,0,0,1,.9,2.866,8.314,8.314,0,0,0,.991,2.976c.388.6.832,1.127,1.644,1.056a14.611,14.611,0,0,0,1.459-.185,3.668,3.668,0,0,0,2.909-2.276,8.485,8.485,0,0,0,.266-5.174,13.737,13.737,0,0,0-1.32-3.05c-.127-.253-.217-.524-.339-.823h.451q2.847,0,5.693,0a4.308,4.308,0,0,0,3.523-1.728A4.846,4.846,0,0,0,36,19.238V18.113a1.14,1.14,0,0,1-.062-.2,4.292,4.292,0,0,0-.873-2.153.942.942,0,0,1-.161-.954,4.574,4.574,0,0,0-.58-3.928.828.828,0,0,1-.117-.687,4.741,4.741,0,0,0-.984-4.021,1.14,1.14,0,0,1-.3-.842A4.7,4.7,0,0,0,28.621.124,25.577,25.577,0,0,0,25.818,0C25.232,0,24.646.008,24.061.011ZM1.629,2.864A1.482,1.482,0,0,0,0,4.5q0,7.01,0,14.02a1.477,1.477,0,0,0,1.634,1.629q3.057,0,6.114,0a1.467,1.467,0,0,0,1.607-1.616q0-3.514,0-7.028,0-3.5,0-6.992a1.483,1.483,0,0,0-1.648-1.65l-3.187,0Zm2.68,5.759a1.438,1.438,0,0,1,.015-2.877,1.438,1.438,0,1,1-.01,2.877Z" fill="#ff4040"/>
</svg>
